<svg id="Layer_1" data-name="Layer 1" xmlns="http://www.w3.org/2000/svg" viewBox="0 0 79.29 79.61"><defs><style>.cls-1{fill:#e0e017;}.cls-2{fill:#10c1c1;}.cls-3{fill:#15afab;stroke:#fff;stroke-miterlimit:10;}</style></defs><title>logo</title><path class="cls-1" d="M66.74,10.15C47,23.66,45.82,49.05,60.66,64A33.43,33.43,0,0,0,88.89,74.28c11-1.12,19.36-6.81,25.73-15.74-3,15.06-17.43,31.16-39,31.22a40.3,40.3,0,0,1-8.88-79.61Z" transform="translate(-35.33 -10.15)"/><path class="cls-2" d="M84.67,71.38A31.23,31.23,0,0,1,65,63.88c-.52-.44-.66-.76-.29-1.39C69.19,54.84,75.9,51,84.75,51.77c8.5.73,14.33,5.47,17.62,13.34a1,1,0,0,1-.47,1.49A31.83,31.83,0,0,1,84.67,71.38Z" transform="translate(-35.33 -10.15)"/><path class="cls-2" d="M83.29,15.87c-3.08,3-3.77,6-2.2,8.84A7.26,7.26,0,0,0,90,27.83c-.68,2.78-5.07,5-8.54,4.31a8.25,8.25,0,0,1-6.72-9.41A8.12,8.12,0,0,1,83.29,15.87Z" transform="translate(-35.33 -10.15)"/><path class="cls-2" d="M75.17,49.79c-.35-3.39,3.48-7,7.49-7.17s8.17,3.43,8,7.2A24.08,24.08,0,0,0,75.17,49.79Z" transform="translate(-35.33 -10.15)"/><path class="cls-2" d="M81.4,40.55V34.36c.08,0,.13-.1.18-.1,2.86-.18,2.86-.18,2.87,2.66v3.63Z" transform="translate(-35.33 -10.15)"/><path class="cls-3" d="M58.59,57.15" transform="translate(-35.33 -10.15)"/></svg>